<svg xmlns="http://www.w3.org/2000/svg" xmlns:xlink="http://www.w3.org/1999/xlink" version="1.1" width="1024" height="768" viewBox="0 0 1024 768" xml:space="preserve">
<desc>Created with Fabric.js 6.7.1</desc>
<defs>
</defs>

<g transform="matrix(1.9454 0 0 1.9454 519.6898 424.0812)" style="" id="iText_textPair_e15125ee-d6d3-40c2-8e4f-a1c78f9fb2ea">
		<text xml:space="preserve" font-family="Brandmark-Professional-Stencil" font-size="100" font-style="normal" font-weight="400" style="stroke: none; stroke-width: 1; stroke-dasharray: none; stroke-linecap: butt; stroke-dashoffset: 0; stroke-linejoin: miter; stroke-miterlimit: 4; fill: rgb(255,255,255); fill-opacity: 0; fill-rule: nonzero; opacity: 1; text-decoration-thickness: 12.9696%; white-space: pre;"><tspan x="-204.9502" y="31.414">EGEX</tspan></text>
</g>
<g transform="matrix(1.9454 0 0 1.9454 512 384)" id="glyphGroup_textPair_e15125ee-d6d3-40c2-8e4f-a1c78f9fb2ea">
<g style="">
		<g transform="matrix(1.3889 0 0 1.3889 -172.9004 0.2998)">
<g style="">
		<g transform="matrix(1 0 0 1 -0.2881 0)">
<path style="stroke: none; stroke-width: 1; stroke-dasharray: none; stroke-linecap: butt; stroke-dashoffset: 0; stroke-linejoin: miter; stroke-miterlimit: 4; fill: rgb(84,64,55); fill-rule: nonzero; opacity: 1;" transform=" translate(-99.7119, -100)" d="M 108.7129 93.3035 C 112.0254 97.4797 110.8731 104.8967 107.2012 107.2009 C 105.2568 108.4255 103.6729 108.6414 102.0889 108.7136 C 101.584 108.7136 101.0801 108.7136 100.5039 108.7136 L 91.2158 108.7136 L 91.2158 125.2019 L 79.9102 125.2019 L 79.9102 74.7981 L 100.5039 74.7981 C 112.6016 74.7981 119.5137 80.1985 119.5137 91.2874 C 119.5137 95.2478 118.7217 98.488 117.21 101.0803 C 117.3535 100.0003 117.4258 98.6321 117.21 97.1199 C 117.0654 96.1121 116.8496 92.2957 113.3213 88.7673 C 108.209 83.7268 100.9365 83.9426 99.9287 83.9426 L 91.2158 83.9426 L 91.2158 99.3523 L 99.9287 99.3523 C 105.1123 99.3523 108.2813 97.552 108.8574 93.0877 L 108.7129 93.3035 Z" stroke-linecap="round"/>
</g>
		<g transform="matrix(1 0 0 1 11.7012 18.7219)">
<path style="stroke: none; stroke-width: 1; stroke-dasharray: none; stroke-linecap: butt; stroke-dashoffset: 0; stroke-linejoin: miter; stroke-miterlimit: 4; fill: rgb(112,88,75); fill-rule: nonzero; opacity: 1;" transform=" translate(-111.7012, -118.7219)" d="M 120.0898 125.0584 L 107.3447 125.0584 L 103.3125 117.6423 C 109.7207 116.9216 112.3857 112.3855 112.3857 112.3855 L 120.0898 125.0584 Z" stroke-linecap="round"/>
</g>
</g>
</g>
		<g transform="matrix(1.3889 0 0 1.3889 -106.8508 0.3005)">
<g style="">
		<g transform="matrix(1 0 0 1 0 0)">
<path style="stroke: none; stroke-width: 1; stroke-dasharray: none; stroke-linecap: butt; stroke-dashoffset: 0; stroke-linejoin: miter; stroke-miterlimit: 4; fill: rgb(84,64,55); fill-rule: nonzero; opacity: 1;" transform=" translate(-100, -100)" d="M 118.8296 115.9856 L 118.8296 125.2024 L 81.1704 125.2024 L 81.1704 74.7976 L 118.0376 74.7976 L 118.0376 84.0144 L 92.4038 84.0144 L 92.4038 115.9133 L 118.8296 115.9856 Z M 99.4604 104.6086 L 100.7563 95.3913 L 115.5894 95.3913 L 115.5894 104.6086 L 99.4604 104.6086 Z" stroke-linecap="round"/>
</g>
</g>
</g>
		<g transform="matrix(1.3889 0 0 1.3889 -38.0495 0)">
<g style="">
		<g transform="matrix(1 0 0 1 0 0)">
<path style="stroke: none; stroke-width: 1; stroke-dasharray: none; stroke-linecap: butt; stroke-dashoffset: 0; stroke-linejoin: miter; stroke-miterlimit: 4; fill: rgb(84,64,55); fill-rule: nonzero; opacity: 1;" transform=" translate(-100, -100)" d="M 125.1665 96.7598 L 125.1665 114.1133 C 120.4136 121.1699 112.061 125.7061 102.1235 125.7061 C 86.5708 125.7061 74.8335 114.6177 74.8335 99.8565 C 74.8335 85.311 86.5708 74.294 102.1235 74.294 C 110.6929 74.294 118.0376 77.6065 123.0054 83.0068 L 113.2847 88.7671 C 110.3325 85.959 106.3726 84.231 102.2681 84.231 C 93.8433 84.231 86.1382 91.1436 86.1382 100 C 86.1382 108.7852 93.9878 115.9136 102.2681 115.9136 C 107.1646 115.9136 111.8452 113.4653 114.7974 109.5771 L 114.7974 106.1206 L 104.7886 106.1206 L 104.7886 96.9038 L 125.1665 96.7598 Z" stroke-linecap="round"/>
</g>
</g>
</g>
		<g transform="matrix(1.3889 0 0 1.3889 36.2996 0.2998)">
<g style="">
		<g transform="matrix(1 0 0 1 -0.2881 0)">
<path style="stroke: none; stroke-width: 1; stroke-dasharray: none; stroke-linecap: butt; stroke-dashoffset: 0; stroke-linejoin: miter; stroke-miterlimit: 4; fill: rgb(84,64,55); fill-rule: nonzero; opacity: 1;" transform=" translate(-99.7119, -100)" d="M 108.7129 93.3035 C 112.0254 97.4797 110.8731 104.8967 107.2012 107.2009 C 105.2568 108.4255 103.6729 108.6414 102.0889 108.7136 C 101.584 108.7136 101.0801 108.7136 100.5039 108.7136 L 91.2158 108.7136 L 91.2158 125.2019 L 79.9102 125.2019 L 79.9102 74.7981 L 100.5039 74.7981 C 112.6016 74.7981 119.5137 80.1985 119.5137 91.2874 C 119.5137 95.2478 118.7217 98.488 117.21 101.0803 C 117.3535 100.0003 117.4258 98.6321 117.21 97.1199 C 117.0654 96.1121 116.8496 92.2957 113.3213 88.7673 C 108.209 83.7268 100.9365 83.9426 99.9287 83.9426 L 91.2158 83.9426 L 91.2158 99.3523 L 99.9287 99.3523 C 105.1123 99.3523 108.2813 97.552 108.8574 93.0877 L 108.7129 93.3035 Z" stroke-linecap="round"/>
</g>
		<g transform="matrix(1 0 0 1 11.7012 18.7219)">
<path style="stroke: none; stroke-width: 1; stroke-dasharray: none; stroke-linecap: butt; stroke-dashoffset: 0; stroke-linejoin: miter; stroke-miterlimit: 4; fill: rgb(112,88,75); fill-rule: nonzero; opacity: 1;" transform=" translate(-111.7012, -118.7219)" d="M 120.0898 125.0584 L 107.3447 125.0584 L 103.3125 117.6423 C 109.7207 116.9216 112.3857 112.3855 112.3857 112.3855 L 120.0898 125.0584 Z" stroke-linecap="round"/>
</g>
</g>
</g>
		<g transform="matrix(1.3889 0 0 1.3889 102.3492 0.3005)">
<g style="">
		<g transform="matrix(1 0 0 1 0 0)">
<path style="stroke: none; stroke-width: 1; stroke-dasharray: none; stroke-linecap: butt; stroke-dashoffset: 0; stroke-linejoin: miter; stroke-miterlimit: 4; fill: rgb(84,64,55); fill-rule: nonzero; opacity: 1;" transform=" translate(-100, -100)" d="M 118.8296 115.9856 L 118.8296 125.2024 L 81.1704 125.2024 L 81.1704 74.7976 L 118.0376 74.7976 L 118.0376 84.0144 L 92.4038 84.0144 L 92.4038 115.9133 L 118.8296 115.9856 Z M 99.4604 104.6086 L 100.7563 95.3913 L 115.5894 95.3913 L 115.5894 104.6086 L 99.4604 104.6086 Z" stroke-linecap="round"/>
</g>
</g>
</g>
		<g transform="matrix(1.3889 0 0 1.3889 167.45 0.1001)">
<g style="">
		<g transform="matrix(1 0 0 1 0 0)">
<path style="stroke: none; stroke-width: 1; stroke-dasharray: none; stroke-linecap: butt; stroke-dashoffset: 0; stroke-linejoin: miter; stroke-miterlimit: 4; fill: rgb(84,64,55); fill-rule: nonzero; opacity: 1;" transform=" translate(-100, -100)" d="M 124.0142 125.2022 L 110.5493 125.2022 L 99.8198 108.3525 L 89.0913 125.2022 L 75.9858 125.2022 L 92.979 99.4238 L 77.1382 74.7978 L 90.2427 74.7978 L 99.8921 90.2793 L 109.5405 74.7978 L 122.7183 74.7978 L 107.0923 98.8477 L 124.0142 125.2022 Z" stroke-linecap="round"/>
</g>
</g>
</g>
</g>
</g>
</svg>